PathFileType	4	(X/Y/Z)	Patient4_TMGait_0pt4_01_left_41.trc.trc
DataRate	CameraRate	NumFrames	NumMarkers	Units	OrigDataRate	OrigDataStartFrame	OrigNumFrames
76.502732240437	76.502732240437	4	33	mm	76.502732240437	1	       141
Frame#	Time	Sacral			L.Shoulder			Chest			R.Shoulder			Neck			R.ASIS			L.ASIS			R.Thigh.Superior			R.Thigh.Lateral			R.Thigh.Inferior			R.Patella			L.Thigh.Superior			L.Thigh.Lateral			L.Thigh.Inferior			L.Patella			L.Shank.Superior			L.Shank.Lateral			L.Shank.Inferior			R.Shank.Superior			R.Shank.Lateral			R.Shank.Inferior			R.Heel			R.Midfoot.Superior			R.Midfoot.Lateral			R.Toe			L.Heel			L.Midfoot.Lateral			L.Midfoot.Superior			L.Toe			L.Elbow			L.Wrist			R.Elbow			R.Wrist			
		X1	Y1	Z1	X2	Y2	Z2	X3	Y3	Z3	X4	Y4	Z4	X5	Y5	Z5	X6	Y6	Z6	X7	Y7	Z7	X8	Y8	Z8	X9	Y9	Z9	X10	Y10	Z10	X11	Y11	Z11	X12	Y12	Z12	X13	Y13	Z13	X14	Y14	Z14	X15	Y15	Z15	X16	Y16	Z16	X17	Y17	Z17	X18	Y18	Z18	X19	Y19	Z19	X20	Y20	Z20	X21	Y21	Z21	X22	Y22	Z22	X23	Y23	Z23	X24	Y24	Z24	X25	Y25	Z25	X26	Y26	Z26	X27	Y27	Z27	X28	Y28	Z28	X29	Y29	Z29	X30	Y30	Z30	X31	Y31	Z31	X32	Y32	Z32	X33	Y33	Z33	

1	51.520000000000	865.563713361225	1007.968090547735	518.665928629673	1032.055343584450	1438.785499952966	325.570597595002	1145.966952643686	1371.798770372249	479.646710790292	1073.395479437336	1444.662046966954	658.946116176650	1025.904435532471	1500.221389602187	482.504037435557	1102.213510220316	944.125783444065	618.865682603555	1069.468571770575	970.141481230698	347.651975241652	1135.191205703701	741.127221871721	588.331640331279	1050.080154444866	633.046984360640	648.339963781869	1125.109582733268	580.485214215415	567.079805769311	1121.394793517202	492.899791447103	572.445181816062	1150.344856801715	782.587664010794	361.434733312504	1095.051365619749	657.487569076390	283.469786411276	1203.677813575679	594.011701065805	329.080442787915	1216.386164074442	508.315946574843	320.601753562662	1157.750934012868	437.100270853346	317.564276997673	1020.365018140402	376.043082943189	276.489427319994	1030.095860493506	244.959732189485	329.642884874702	1091.007545229444	404.887500813451	576.362069489103	1015.517810944168	301.202508532680	634.315163237157	1057.033197568883	207.279941237516	568.226621981755	919.823656108331	43.679153561379	530.436322708192	1091.585930486455	97.078765993518	570.096556066819	1002.356199510899	37.368025360462	606.662008232371	1210.791010563814	42.994819793354	598.448388385204	852.581248880868	148.976561521497	377.317864724590	911.767153104693	116.795247013334	291.454113090224	1015.863300867100	143.114861032821	307.255786569473	1110.195097721766	47.659447356540	268.767556526294	999.008009477256	1083.375696797812	218.886093667481	1116.833562787888	848.973498763461	193.068037398881	1107.022125046036	1106.944785695940	802.204564452990	1308.717396036396	948.017236231741	772.253659893102	
2	51.533071428571	864.902273092163	1008.910249680226	520.569219184005	1031.065473619244	1439.292882509777	327.197535249671	1146.302274589212	1371.667474642448	479.975736866819	1075.876839344999	1444.651663878217	660.011326517924	1026.425382588422	1500.462912906976	484.065978261453	1101.879159427784	944.098103687550	619.052527003692	1067.407573962139	970.843027885334	347.946633614990	1132.288439473573	740.603521416631	587.751021380108	1046.902735785813	633.110475777349	648.419679437075	1120.668958369763	580.003308116699	566.687789826204	1116.314354614133	492.786176329590	572.182794445691	1148.470636804234	783.972820653627	361.620465675430	1093.225813464966	658.305932455935	284.352380989063	1201.900604579749	595.256521521064	329.936400955773	1215.831836076211	511.322310683837	321.702021294769	1161.217098528812	439.257981160135	317.872939991488	1028.952541926579	370.428781959834	275.804725568327	1047.193336856139	240.328086231228	327.634658391016	1086.019120882253	404.830623238603	576.207485023485	1010.545657163864	301.285624865420	634.291256609101	1051.803940356959	207.239689968012	568.072111658320	914.333626478184	43.819611952068	530.463053874307	1086.086157798678	97.026052085862	570.073378909019	996.819842590035	37.390071663596	606.617150691069	1205.268854974493	42.772715942337	598.550481150984	877.768027905793	133.372556669821	374.036099814414	938.458800599151	105.895110000092	288.165870937064	1039.952870545631	138.348431201918	304.504630674303	1139.589271994081	49.858244001011	265.755227877867	992.784147318336	1084.385492616919	220.935933760824	1101.380613003712	846.286304031849	196.072272758149	1117.123283098485	1107.848511157602	802.114455085740	1322.761320161947	955.540470395055	768.971450204622	
3	51.546142857143	864.253031829804	1009.821110815676	522.411447831624	1030.100968856343	1439.769091214721	328.776570144987	1146.639331569982	1371.510345194829	480.273266953016	1078.328516289262	1444.610508388313	661.034387187002	1026.958323924373	1500.669598381893	485.602965404550	1101.520145947212	944.033773638501	619.199948619128	1065.383940079321	971.487711254544	348.218380606646	1129.427089873632	740.075438450374	587.175372838229	1043.766726353324	633.163269939103	648.509364857638	1116.285587655466	579.516871917213	566.308952730381	1111.294374792444	492.664027803280	571.929138024068	1146.506106127281	785.149024190279	361.827204576165	1091.245820663130	659.009620349158	285.176537529157	1199.846766110542	596.260809001444	330.909302706574	1214.998686806004	514.151786896033	322.887014481498	1164.426944400954	441.367763501424	318.224649756855	1037.517375956486	364.823428029061	275.065371486415	1064.254348136729	235.894454753690	325.670367978242	1081.082742551599	404.768158268614	576.055966671750	1005.628268650376	301.360056822408	634.276302101143	1046.609238508937	207.198592685332	567.923033603852	908.882073283011	43.955231006139	530.491811678811	1080.623254051696	96.972164458477	570.050341682662	991.324729626604	37.412324697473	606.576984244273	1199.785201398875	42.547828950419	598.649013779159	903.125212538692	118.099932517756	370.712718634827	965.338416323901	95.322454325875	284.909199947014	1064.103758084272	133.887076838060	301.839242681693	1168.963339961295	52.439229277040	262.978095909540	986.553634106394	1085.378529993711	222.984312329683	1086.032805899525	843.704616337898	199.019835662810	1127.050148664814	1108.722844308848	801.960032510519	1336.551796145680	963.006372435258	765.648602004250	
4	51.559214285714	863.622310136477	1010.673477906962	524.132268185188	1029.186869104193	1440.188010480329	330.247940610916	1146.976099590391	1371.307828968924	480.499640721645	1080.713266458327	1444.515691106384	661.962777457934	1027.509200451729	1500.813337834567	487.074468402921	1101.121871031537	943.907003677673	619.271458921017	1063.426145892778	972.030498838404	348.437860192110	1126.652751607134	739.540151688731	586.607992640235	1040.710231023443	633.197841727630	648.608246602118	1112.014415399883	579.023988298343	565.949492613716	1106.393698162349	492.526418108177	571.685874793071	1144.375234672920	785.958922632369	362.072710996960	1089.007261735934	659.514236756884	285.894885862521	1197.327972190892	596.853311642839	332.072763495109	1213.687999962922	516.674220010128	324.211076612180	1167.166598504309	443.394458443329	318.647779774366	1045.974988348944	359.301256795596	274.260415008027	1081.125421418379	231.879161991978	323.807677308301	1076.246217506004	404.695995390386	575.905295363428	1000.812505968536	301.422927136374	634.275726894442	1041.480078404120	207.157014821029	567.783226711765	903.498517930576	44.084231178834	530.524636894027	1075.225798940127	96.916232759618	570.027724906620	985.902785579351	37.434105839704	606.544375387816	1194.370410635531	42.320074606807	598.741085384827	928.595004098817	103.580876824915	367.382384520084	992.342277372400	85.441964253509	281.766640239741	1088.182020335852	130.024728038898	299.357701653280	1198.071831762461	55.690603219342	260.642576735287	980.335447036220	1086.343797396346	225.013029639327	1070.931335451232	841.336062962298	201.856825574312	1136.611391654912	1109.536901015104	801.661944141890	1349.809399341918	970.335915367067	762.240335431905	
